<?xml version="1.0" standalone="no"?><!DOCTYPE svg PUBLIC "-//W3C//DTD SVG 1.1//EN" "http://www.w3.org/Graphics/SVG/1.1/DTD/svg11.dtd"><svg t="1742747102162" class="icon" viewBox="0 0 1024 1024" version="1.1" xmlns="http://www.w3.org/2000/svg" p-id="9814" xmlns:xlink="http://www.w3.org/1999/xlink" width="256" height="256"><path d="M874.019125 149.980875c199.974501 199.931835 199.974501 524.106414 0 724.03825-199.931835 199.974501-524.106414 199.974501-724.038249 0-199.974501-199.931835-199.974501-524.106414 0-724.03825 199.931835-199.974501 524.106414-199.974501 724.038249 0zM424.108498 424.065832a124.328076 124.328076 0 1 0 175.868336 175.868336 124.328076 124.328076 0 0 0-175.868336-175.868336zM266.714444 266.714443a353.229974 353.229974 0 0 1 89.683465-65.107976l-17.066312-40.873816a397.218391 397.218391 0 0 0-178.598945 178.598946l40.873815 17.066311A353.357972 353.357972 0 0 1 266.671778 266.714443z m83.624924 83.624925c15.743672-15.786338 33.279307-28.586071 51.83892-38.996521l-17.194308-41.172476a279.290181 279.290181 0 0 0-114.813608 114.813609l41.172475 17.194308c10.367784-18.559613 23.210183-36.095248 38.996521-51.83892z m317.262724 472.054165l17.066311 40.873816a397.13306 397.13306 0 0 0 178.598946-178.641612l-40.873815-17.066311a353.229974 353.229974 0 0 1-154.791442 154.834107z m-45.78038-109.73638l17.194309 41.172476a279.588842 279.588842 0 0 0 114.770942-114.813609l-41.172476-17.194308a235.515093 235.515093 0 0 1-38.953855 51.83892c-15.786338 15.786338-33.279307 28.586071-51.83892 38.996521z" fill="#515151" p-id="9815"></path></svg>