<?xml version="1.0" standalone="no"?><!DOCTYPE svg PUBLIC "-//W3C//DTD SVG 1.1//EN" "http://www.w3.org/Graphics/SVG/1.1/DTD/svg11.dtd"><svg t="1743077156642" class="icon" viewBox="0 0 1024 1024" version="1.1" xmlns="http://www.w3.org/2000/svg" p-id="4741" xmlns:xlink="http://www.w3.org/1999/xlink" width="256" height="256"><path d="M505.92 302.87c40.04-23.82 73.86-49.94 112.01-65.31 65.1-26.23 145.52-5.76 187.05 45.57 45.64 56.4 52.47 122.21 22.05 186.44-18.13 38.29-45.81 73.88-75.6 104.45-69.48 71.28-142.78 138.84-214.64 207.78-22.3 21.39-29.47 21.33-51.4 0.32-77.05-73.82-155.28-146.46-230.59-222.01-47.85-48-80.3-104.84-75.97-176.68 7.86-130.47 118.7-170 210.51-151.13 40.35 8.3 71.61 33.58 102.81 58.46 5.99 4.8 11.54 10.14 13.77 12.11z" p-id="4742" fill="#d81e06"></path></svg>